# xmcd
#
# Track frame offsets:
#	150
#	19399
#	41606
#	71666
#	83461
#	103275
#	123254
#	143106
#	167264
#	194040
#	214045
#	231798
#
# Disc length: 3180 seconds
#
# Revision: 1
# Processed by: cddbd v1.5.2PL0 Copyright (c) Steve Scherf et al.
# Submitted via: audiograbber 1.83.01
#
DISCID=a40c6a0c
DTITLE=Barfly - Live at the Farmhouse Jazzclub
DYEAR=2017
DGENRE=Blues
TTITLE0=It'll Be Me
TTITLE1=Sensitive Kind
TTITLE2=Nothing But The Devil
TTITLE3=6 Frauen aus'm Hochsauerland
TTITLE4=Your Mind Is On Vacation
TTITLE5=Baby What You Want Me To Do
TTITLE6=Don't Let Me Down
TTITLE7=I Need Your Love So Bad
TTITLE8=Bourgeois Blues
TTITLE9=Mercury Blues
TTITLE10=Putting On The Style
TTITLE11=The Spoon Special
EXTD=
EXTT0=
EXTT1=
EXTT2=
EXTT3=
EXTT4=
EXTT5=
EXTT6=
EXTT7=
EXTT8=
EXTT9=
EXTT10=
EXTT11=
PLAYORDER=
